<svg id="Capa_1" data-name="Capa 1" xmlns="http://www.w3.org/2000/svg" xmlns:xlink="http://www.w3.org/1999/xlink" viewBox="0 0 433.28 396.39"><defs><style>.cls-1{fill:url(#Degradado_sin_nombre_4);}.cls-2{fill:#404040;}.cls-3{fill:url(#Degradado_sin_nombre_66);}</style><linearGradient id="Degradado_sin_nombre_4" x1="1" y1="198" x2="434" y2="198" gradientUnits="userSpaceOnUse"><stop offset="0" stop-color="#fff"/><stop offset="0" stop-color="#54ffa2"/><stop offset="0.2" stop-color="#60edbb"/><stop offset="0.55" stop-color="#71d3e0"/><stop offset="0.82" stop-color="#7bc3f7"/><stop offset="1" stop-color="#7fbdff"/></linearGradient><linearGradient id="Degradado_sin_nombre_66" x1="102.03" y1="198" x2="332.97" y2="198" gradientUnits="userSpaceOnUse"><stop offset="0" stop-color="#fff"/><stop offset="0" stop-color="#54ffa2"/><stop offset="0.16" stop-color="#60ecbd"/><stop offset="0.37" stop-color="#6ed7da"/><stop offset="0.59" stop-color="#77c9ee"/><stop offset="0.8" stop-color="#7dc0fb"/><stop offset="1" stop-color="#7fbdff"/></linearGradient></defs><title>Mesa de trabajo 1</title><polygon class="cls-1" points="1 0 74 0 74 57.8 361 57.8 361 0 434 0 434 396 361 396 360 335.08 73.33 335.34 74 396 1 396 1 0"/><rect class="cls-2" x="74.17" y="78.33" width="286.67" height="239.33"/><rect class="cls-2" x="16.83" y="25" width="42.67" height="42.67"/><rect class="cls-2" x="16.83" y="85.67" width="42.67" height="42.67"/><rect class="cls-2" x="16.83" y="146.33" width="42.67" height="42.67"/><rect class="cls-2" x="16.83" y="207" width="42.67" height="42.67"/><rect class="cls-2" x="16.83" y="267.67" width="42.67" height="42.67"/><rect class="cls-2" x="16.83" y="328.33" width="42.67" height="42.67"/><rect class="cls-2" x="376.5" y="25" width="42.67" height="42.67"/><rect class="cls-2" x="376.5" y="85.67" width="42.67" height="42.67"/><rect class="cls-2" x="376.5" y="146.33" width="42.67" height="42.67"/><rect class="cls-2" x="376.5" y="207" width="42.67" height="42.67"/><rect class="cls-2" x="376.5" y="267.67" width="42.67" height="42.67"/><rect class="cls-2" x="376.5" y="328.33" width="42.67" height="42.67"/><path class="cls-3" d="M313.5,206.47c22.3,11.47,19.1,78.2,19.1,78.2H298.3s-2.29-44.34-8.69-52.87-14.78-6.33-14.78-6.33v59.2h-43.2V190.8L187.9,227.6l-43.2-36.8v93.87H102V111.33H144.7l43.35,37,43.58-37H295.1S333,112.47,333,154C333,203.07,297.3,198.13,313.5,206.47Z"/><path class="cls-2" d="M263,143.71v44s36.4,1.6,36.4-22S263,143.71,263,143.71Z"/></svg>